<svg xmlns="http://www.w3.org/2000/svg" width="621" height="196" viewBox="0 0 621 196" xml:space="preserve"><path fill="#fff" d="M546 196c-41.4 0-75-33.6-75-75s33.6-75 75-75 75 33.6 75 75-33.6 75-75 75zm0-31c24.3 0 44-19.7 44-44s-19.7-44-44-44-44 19.7-44 44 19.7 44 44 44zm-157 31c-41.4 0-75-33.6-75-75s33.6-75 75-75 75 33.6 75 75-33.6 75-75 75zm0-31c24.3 0 44-19.7 44-44s-19.7-44-44-44-44 19.7-44 44 19.7 44 44 44zm-82-45c0 41.9-33.6 76-75 76s-75-34-75-75.9c0-41.9 30.5-74.1 75-74.1 16.4 0 31.6 3.5 44 12.6V15.1C276 6.8 283.3 0 291.5 0S307 6.8 307 15.1V120zm-75 45c24.3 0 44-19.7 44-44s-19.7-44-44-44-44 19.7-44 44 19.7 44 44 44zM75 196c-41.4 0-75-33.6-75-75s33.6-75 75-75 75 33.6 75 75-33.6 75-75 75zm0-31c24.3 0 44-19.7 44-44S99.3 77 75 77s-44 19.7-44 44 19.7 44 44 44z"/></svg>